<?xml version="1.0" encoding="iso-8859-1"?>
<!-- Generator: Adobe Illustrator 19.0.0, SVG Export Plug-In . SVG Version: 6.00 Build 0)  -->
<svg xmlns="http://www.w3.org/2000/svg" xmlns:xlink="http://www.w3.org/1999/xlink" version="1.1" id="Layer_1" x="0px" y="0px" viewBox="0 0 512 512" style="enable-background:new 0 0 512 512;" xml:space="preserve" width="512px" height="512px">
<g>
	<g>
		<path d="M256,0C114.615,0,0,114.615,0,256s114.615,256,256,256s256-114.615,256-256S397.385,0,256,0z M230.4,358.4    c0,14.138-11.462,25.6-25.6,25.6h-25.6c-14.138,0-25.6-11.461-25.6-25.6V153.6c0-14.139,11.461-25.6,25.6-25.6h25.6    c14.138,0,25.6,11.461,25.6,25.6V358.4z M358.4,358.4c0,14.138-11.462,25.6-25.6,25.6h-25.6c-14.138,0-25.6-11.461-25.6-25.6    V153.6c0-14.139,11.461-25.6,25.6-25.6h25.6c14.138,0,25.6,11.461,25.6,25.6V358.4z" fill="#91DC5A"/>
	</g>
</g>
<g>
</g>
<g>
</g>
<g>
</g>
<g>
</g>
<g>
</g>
<g>
</g>
<g>
</g>
<g>
</g>
<g>
</g>
<g>
</g>
<g>
</g>
<g>
</g>
<g>
</g>
<g>
</g>
<g>
</g>
</svg>
