<?xml version="1.0" encoding="iso-8859-1"?>
<!-- Generator: Adobe Illustrator 16.0.0, SVG Export Plug-In . SVG Version: 6.00 Build 0)  -->
<!DOCTYPE svg PUBLIC "-//W3C//DTD SVG 1.1//EN" "http://www.w3.org/Graphics/SVG/1.1/DTD/svg11.dtd">
<svg version="1.1" id="Capa_1" xmlns="http://www.w3.org/2000/svg" xmlns:xlink="http://www.w3.org/1999/xlink" x="0px" y="0px"
	 width="388.2px" height="388.201px" viewBox="0 0 388.2 388.201" style="enable-background:new 0 0 388.2 388.201;"
	 xml:space="preserve">
<g>
	<g>
		<g>
			<path d="M381.299,209.457c-0.578-2.01-1.785-3.783-3.442-5.062c-14.076-10.851-28.529-16.818-42.853-18.164
				c0,0-1.908-0.307-6.504-0.307c-4.598,0-6.941,0.299-6.941,0.299c-13.812,1.629-27.643,7.711-41.215,18.172
				c-1.658,1.277-2.864,3.053-3.442,5.062c-6.662,23.091-8.439,45.242-5.597,69.711c2.513,21.63,8.472,43.341,15.425,67.442
				c0.579,2.011,1.786,3.785,3.442,5.062c10.658,8.217,24.482,12.739,38.926,12.739c14.444,0,28.271-4.522,38.929-12.737
				c1.657-1.277,2.864-3.054,3.444-5.063c6.953-24.104,12.912-45.812,15.425-67.441
				C389.738,254.699,387.961,232.546,381.299,209.457z M337.701,249.556c0,4.751-3.853,8.602-8.603,8.602s-8.6-3.851-8.6-8.602
				v-35.875c0-4.75,3.85-8.603,8.6-8.603s8.603,3.853,8.603,8.603V249.556z"/>
			<path d="M263.645,341.357h-15.51l-12.8-43.521h26.126c-0.816-4.665-1.514-9.327-2.059-14.008
				c-1.648-14.195-1.847-27.68-0.576-40.992H30V50.857h310v123.237c10.1,1.013,20.131,3.962,30,8.795V35.857c0-8.284-6.717-15-15-15
				H15c-8.284,0-15,6.716-15,15v246.979c0,8.285,6.716,15,15,15h119.664l-12.799,43.521h-15.508c-3.938,0-7.131,3.192-7.131,7.13
				v11.726c0,3.938,3.193,7.131,7.131,7.131h157.288c3.938,0,7.13-3.192,7.13-7.131v-11.726
				C270.773,344.549,267.582,341.357,263.645,341.357z"/>
		</g>
	</g>
</g>
<g>
</g>
<g>
</g>
<g>
</g>
<g>
</g>
<g>
</g>
<g>
</g>
<g>
</g>
<g>
</g>
<g>
</g>
<g>
</g>
<g>
</g>
<g>
</g>
<g>
</g>
<g>
</g>
<g>
</g>
</svg>
